<svg id="Layer_1" data-name="Layer 1" xmlns="http://www.w3.org/2000/svg" viewBox="0 0 864 240.7077">
  <title>yasudan-logo-full-color-rgb</title>
  <g>
    <path id="fullLogo" d="M394.3839,240.7077q-24.238,0-39.0507-13.8021-16.8382-16.16-16.8321-44.101V2.3629h37.03V182.8046q0,12.459,4.7131,16.833,4.372,4.0392,14.1393,4.04,9.4215,0,13.803-4.04,5.0493-4.7107,5.0493-16.833V2.3629h37.0314V182.8046q0,27.2685-16.8331,44.101Q417.9466,240.7133,394.3839,240.7077Z" style="fill: #343896"/>
    <path id="fullLogo-2" data-name="fullLogo" d="M531.3961,238.0149H475.5134V2.3629h55.8827q23.8995,0,39.0517,14.1393Q587.2761,31.99,587.28,60.266V181.4587a69.6587,69.6587,0,0,1-4.04,24.5751,50.0153,50.0153,0,0,1-13.13,18.8515Q555.6328,238.0144,531.3961,238.0149Zm-18.8514-37.0313h18.8514q10.1,0,14.1393-3.7025,4.7107-4.0407,4.7131-15.8224V60.266q0-11.78-5.0493-16.8321-4.3792-4.0392-13.8031-4.04H512.5447Z" style="fill: #343896"/>
    <path id="fullLogo-3" data-name="fullLogo" d="M694.3332,238.0149l-6.7324-37.3676H645.1829l-6.7324,37.3676H600.7466l47.13-235.652H684.908l47.13,235.652ZM651.58,163.616h29.6245L666.3919,79.1184Z" style="fill: #343896"/>
    <path id="fullLogo-4" data-name="fullLogo" d="M864,2.3629v235.652H842.4548l-56.5562-119.51v119.51H748.8673V2.3629h21.5452L826.97,121.5353V2.3629Z" style="fill: #343896"/>
    <path id="fullLogo-5" data-name="fullLogo" d="M89.4238,2.6893,63.8744,87.0609,38.9966,2.6893H0L45.3746,155.3158v82.7H82.7v-82.7L128.4209,2.6893Z" style="fill: #f89838"/>
    <polygon id="fullLogo-6" data-name="fullLogo" points="171.125 163.711 141.541 163.711 156.334 79.338 171.125 163.711" style="fill: #f89838"/>
    <path id="fullLogo-7" data-name="fullLogo" d="M325.993,78.3206V57.8233q0-27.9228-16.8091-44.05Q294.4013,0,270.1868,0,245.9821,0,231.19,13.7737q-16.8,16.1369-16.8091,44.05v5.705a69.35,69.35,0,0,0,6.3968,29.5842,74.54,74.54,0,0,0,18.4805,24.5509q7.4052,6.3681,23.2058,14.7918,11.4108,6.3681,14.12,8.7408,12.42,11.411,12.429,26.8945v14.7919q0,12.42-5.0328,16.809-4.0346,4.0347-13.7934,4.0339c-6.2626,0-10.8729-1.3441-13.7737-4.0339-3.3618-3.15-5.052-8.7408-5.052-16.809V152.28h-36.98v30.602q0,27.8933,16.8091,44.03,14.8108,13.8027,38.9966,13.7929,24.2055,0,38.9971-13.7929,16.8285-16.1364,16.8091-44.03V168.0905q0-32.2738-24.8773-54.4615-6.7143-6.0516-24.2053-15.4639c-6.4928-3.5926-10.8728-6.2819-13.1011-8.0688q-12.4485-11.0941-12.4482-26.568v-5.705q0-12.103,5.052-16.809c2.9008-2.69,7.5111-4.0344,13.7737-4.0344q9.7689,0,13.7934,4.0344,5.0427,4.35,5.0328,16.809V78.3206Z" style="fill: #343896"/>
    <polygon id="fullLogo-8" data-name="fullLogo" points="184.227 238.016 128.421 238.016 135.145 200.69 177.503 200.69 184.227 238.016" style="fill: #f89838"/>
  </g>
</svg>
