<svg id="Layer_1" data-name="Layer 1" xmlns="http://www.w3.org/2000/svg" viewBox="0 0 635.9149 477.9952">
  <title>yasudan-logo-full-color-rgb</title>
  <g>
    <path id="fullLogo" d="M177.5788,5.34,126.8425,172.8866,77.44,5.34H0L90.1054,308.428V472.6549h74.1215V308.428L255.02,5.34Z" style="fill: #f89838"/>
    <polygon id="fullLogo-2" data-name="fullLogo" points="339.823 325.098 281.074 325.098 310.449 157.551 339.823 325.098" style="fill: #f89838"/>
    <path id="fullLogo-3" data-name="fullLogo" d="M635.9149,155.53V114.8262q0-55.4493-33.38-87.4743Q573.18,0,525.0944,0q-48.066,0-77.44,27.3519-33.361,32.045-33.38,87.4743v11.329a137.7178,137.7178,0,0,0,12.7026,58.7486q12.6459,27.41,36.699,48.7535,14.7051,12.6457,46.0823,29.3738,22.66,12.6459,28.0392,17.3576,24.6631,22.66,24.6818,53.4074V363.17q0,24.6632-9.9944,33.38-8.012,8.012-27.391,8.01c-12.4363,0-21.5915-2.6692-27.3519-8.01-6.6759-6.2559-10.0325-17.3576-10.0325-33.38V302.4H414.2749v60.77q0,55.3908,33.38,87.4353,29.4116,27.41,77.44,27.39,48.0675,0,77.4409-27.39,33.4182-32.0436,33.38-87.4353V333.7961q0-64.09-49.4016-108.15-13.3333-12.0173-48.067-30.7085c-12.8937-7.1342-21.5916-12.4745-26.0164-16.023q-24.72-22.0311-24.72-52.7591v-11.329q0-24.0344,10.0325-33.38c5.76-5.3413,14.9156-8.0115,27.3519-8.0115q19.3991,0,27.391,8.0115,10.014,8.6393,9.9944,33.38V155.53Z" style="fill: #343896"/>
    <polygon id="fullLogo-4" data-name="fullLogo" points="365.84 472.655 255.02 472.655 268.371 398.533 352.488 398.533 365.84 472.655" style="fill: #f89838"/>
  </g>
</svg>
