<svg width="82" height="86" viewBox="0 0 82 86" fill="none" xmlns="http://www.w3.org/2000/svg">
<mask id="mask0" mask-type="alpha" maskUnits="userSpaceOnUse" x="0" y="0" width="64" height="73">
<path d="M53.4856 14.3887C56.0476 18.1141 57.8979 21.7859 58.8256 24.7003C59.2905 26.1606 59.5146 27.4027 59.4963 28.3532C59.4777 29.3185 59.215 29.8669 58.844 30.122C58.473 30.3771 57.8669 30.4262 56.9588 30.0981C56.0648 29.7751 54.9851 29.1214 53.7878 28.1647C51.3984 26.2555 48.6319 23.2138 46.0699 19.4884C43.508 15.763 41.6577 12.0912 40.7299 9.17677C40.2651 7.71645 40.041 6.47429 40.0593 5.52389C40.0779 4.55853 40.3406 4.01017 40.7116 3.75504C41.0826 3.49991 41.6886 3.45081 42.5967 3.7789C43.4907 4.1019 44.5704 4.75568 45.7677 5.71233C48.1572 7.62154 50.9237 10.6632 53.4856 14.3887Z" fill="#C4C4C4" stroke="black"/>
<path d="M58.432 30.4053L25.1243 53.3108C25.2352 52.8477 25.3033 52.2932 25.2938 51.6345C25.256 49.0113 23.9883 44.7346 19.291 37.9041C14.5937 31.0736 11.0538 28.3594 8.61789 27.3854C8.00619 27.1408 7.46403 27.006 6.99188 26.9438L40.2996 4.03835L58.432 30.4053Z" fill="#C4C4C4" stroke="black"/>
<path d="M61.4496 66.5598C61.5974 66.7747 61.6226 67.2074 61.26 67.8638C60.9135 68.4909 60.2757 69.1875 59.4157 69.7789C58.5557 70.3704 57.6769 70.7167 56.9674 70.8158C56.2247 70.9195 55.8297 70.7412 55.6819 70.5262C55.534 70.3113 55.5089 69.8786 55.8715 69.2222C56.218 68.5951 56.8557 67.8985 57.7158 67.307C58.5758 66.7156 59.4545 66.3693 60.1641 66.2702C60.9068 66.1665 61.3018 66.3448 61.4496 66.5598Z" fill="#C4C4C4" stroke="black"/>
<rect x="38.3994" y="45.3952" width="7" height="30" transform="rotate(-34.516 38.3994 45.3952)" fill="#C4C4C4" stroke="black"/>
<path d="M17.2311 39.3207C19.793 43.0461 21.6433 46.7179 22.571 49.6323C23.0359 51.0926 23.26 52.3348 23.2417 53.2852C23.2231 54.2505 22.9604 54.7989 22.5894 55.054C22.2184 55.3092 21.6123 55.3582 20.7043 55.0302C19.8102 54.7072 18.7305 54.0534 17.5333 53.0967C15.1438 51.1875 12.3773 48.1458 9.81535 44.4204C7.25339 40.695 5.40311 37.0232 4.47538 34.1088C4.01052 32.6485 3.7864 31.4063 3.80471 30.4559C3.8233 29.4905 4.08602 28.9422 4.45701 28.6871C4.82801 28.4319 5.43407 28.3828 6.34215 28.7109C7.23618 29.0339 8.31588 29.6877 9.51315 30.6444C11.9026 32.5536 14.6691 35.5952 17.2311 39.3207Z" fill="#C4C4C4" stroke="black"/>
</mask>
<g mask="url(#mask0)">
<rect x="0.0538559" y="31.1083" width="54" height="78" transform="rotate(-34.516 0.0538559 31.1083)" fill="white"/>
</g>
</svg>
